<?xml version="1.0" encoding="UTF-8"?>
<svg version="1.1" xmlns="http://www.w3.org/2000/svg" width="960" height="506">
<path d="M0 0 C316.8 0 633.6 0 960 0 C960 166.98 960 333.96 960 506 C643.2 506 326.4 506 0 506 C0 339.02 0 172.04 0 0 Z " fill="#0B3261" transform="translate(0,0)"/>
<path d="M0 0 C316.8 0 633.6 0 960 0 C960 77.22 960 154.44 960 234 C643.2 234 326.4 234 0 234 C0 156.78 0 79.56 0 0 Z " fill="#B31B44" transform="translate(0,272)"/>
<path d="M0 0 C316.8 0 633.6 0 960 0 C960 38.61 960 77.22 960 117 C643.2 117 326.4 117 0 117 C0 78.39 0 39.78 0 0 Z " fill="#B31A43" transform="translate(0,272)"/>
<path d="M0 0 C190.08 0 380.16 0 576 0 C576 64.02 576 128.04 576 194 C385.92 194 195.84 194 0 194 C0 129.98 0 65.96 0 0 Z " fill="#B31B44" transform="translate(384,39)"/>
<path d="M0 0 C190.08 0 380.16 0 576 0 C576 25.74 576 51.48 576 78 C385.92 78 195.84 78 0 78 C0 52.26 0 26.52 0 0 Z " fill="#B31B43" transform="translate(384,39)"/>
<path d="M0 0 C316.8 0 633.6 0 960 0 C960 13.2 960 26.4 960 40 C643.2 40 326.4 40 0 40 C0 26.8 0 13.6 0 0 Z " fill="#B31B43" transform="translate(0,466)"/>
<path d="M0 0 C316.8 0 633.6 0 960 0 C960 12.87 960 25.74 960 39 C643.2 39 326.4 39 0 39 C0 26.13 0 13.26 0 0 Z " fill="#FEFDFD" transform="translate(0,350)"/>
<path d="M0 0 C316.8 0 633.6 0 960 0 C960 12.87 960 25.74 960 39 C643.2 39 326.4 39 0 39 C0 26.13 0 13.26 0 0 Z " fill="#FEFEFE" transform="translate(0,272)"/>
<path d="M0 0 C316.8 0 633.6 0 960 0 C960 12.54 960 25.08 960 38 C643.2 38 326.4 38 0 38 C0 25.46 0 12.92 0 0 Z " fill="#FFFFFF" transform="translate(0,428)"/>
<path d="M0 0 C190.08 0 380.16 0 576 0 C576 12.87 576 25.74 576 39 C385.92 39 195.84 39 0 39 C0 26.13 0 13.26 0 0 Z " fill="#B31A42" transform="translate(384,233)"/>
<path d="M0 0 C190.08 0 380.16 0 576 0 C576 12.87 576 25.74 576 39 C385.92 39 195.84 39 0 39 C0 26.13 0 13.26 0 0 Z " fill="#FEFDFD" transform="translate(384,194)"/>
<path d="M0 0 C190.08 0 380.16 0 576 0 C576 12.87 576 25.74 576 39 C385.92 39 195.84 39 0 39 C0 26.13 0 13.26 0 0 Z " fill="#FEFDFD" transform="translate(384,39)"/>
<path d="M0 0 C190.08 0 380.16 0 576 0 C576 12.87 576 25.74 576 39 C385.92 39 195.84 39 0 39 C0 26.13 0 13.26 0 0 Z " fill="#B31942" transform="translate(384,0)"/>
<path d="M0 0 C190.08 0 380.16 0 576 0 C576 12.54 576 25.08 576 38 C385.92 38 195.84 38 0 38 C0 25.46 0 12.92 0 0 Z " fill="#FFFFFF" transform="translate(384,117)"/>
<path d="M0 0 C0.66 0 1.32 0 2 0 C2.66 2.97 3.32 5.94 4 9 C7.63 9 11.26 9 15 9 C15 9.66 15 10.32 15 11 C12.79189025 12.8588679 10.3918738 14.37694278 8 16 C8.66 19.63 9.32 23.26 10 27 C8.948125 26.154375 7.89625 25.30875 6.8125 24.4375 C3.91964549 22.36837863 3.91964549 22.36837863 0.4375 21.9375 C-2.6493684 23.28305802 -5.27318404 25.03415593 -8 27 C-7.68950274 25.56206608 -7.3765224 24.1246682 -7.0625 22.6875 C-6.88847656 21.88699219 -6.71445312 21.08648437 -6.53515625 20.26171875 C-6 18 -6 18 -5 15 C-6.1446875 14.566875 -6.1446875 14.566875 -7.3125 14.125 C-10 13 -10 13 -13 11 C-13 10.34 -13 9.68 -13 9 C-9.37 9 -5.74 9 -2 9 C-1.34 6.03 -0.68 3.06 0 0 Z " fill="#E8EBF0" transform="translate(319,149)"/>
<path d="M0 0 C0.66 0 1.32 0 2 0 C2.66 2.97 3.32 5.94 4 9 C7.63 9 11.26 9 15 9 C15 9.66 15 10.32 15 11 C12.79189025 12.8588679 10.3918738 14.37694278 8 16 C8.66 19.63 9.32 23.26 10 27 C8.948125 26.154375 7.89625 25.30875 6.8125 24.4375 C3.91964549 22.36837863 3.91964549 22.36837863 0.4375 21.9375 C-2.6493684 23.28305802 -5.27318404 25.03415593 -8 27 C-7.68950274 25.56206608 -7.3765224 24.1246682 -7.0625 22.6875 C-6.88847656 21.88699219 -6.71445313 21.08648437 -6.53515625 20.26171875 C-6 18 -6 18 -5 15 C-6.1446875 14.566875 -6.1446875 14.566875 -7.3125 14.125 C-10 13 -10 13 -13 11 C-13 10.34 -13 9.68 -13 9 C-9.37 9 -5.74 9 -2 9 C-1.34 6.03 -0.68 3.06 0 0 Z " fill="#E8EBF0" transform="translate(255,149)"/>
<path d="M0 0 C0.66 0 1.32 0 2 0 C2.66 2.97 3.32 5.94 4 9 C7.63 9 11.26 9 15 9 C15 9.66 15 10.32 15 11 C12.79189025 12.8588679 10.3918738 14.37694278 8 16 C8.66 19.63 9.32 23.26 10 27 C8.948125 26.154375 7.89625 25.30875 6.8125 24.4375 C3.91964549 22.36837863 3.91964549 22.36837863 0.4375 21.9375 C-2.6493684 23.28305802 -5.27318404 25.03415593 -8 27 C-7.68950274 25.56206608 -7.3765224 24.1246682 -7.0625 22.6875 C-6.88847656 21.88699219 -6.71445313 21.08648437 -6.53515625 20.26171875 C-6 18 -6 18 -5 15 C-6.1446875 14.566875 -6.1446875 14.566875 -7.3125 14.125 C-10 13 -10 13 -13 11 C-13 10.34 -13 9.68 -13 9 C-9.37 9 -5.74 9 -2 9 C-1.34 6.03 -0.68 3.06 0 0 Z " fill="#E8EBF0" transform="translate(191,149)"/>
<path d="M0 0 C0.66 0 1.32 0 2 0 C2.66 2.97 3.32 5.94 4 9 C7.63 9 11.26 9 15 9 C15 9.66 15 10.32 15 11 C12.79189025 12.8588679 10.3918738 14.37694278 8 16 C8.66 19.63 9.32 23.26 10 27 C8.948125 26.154375 7.89625 25.30875 6.8125 24.4375 C3.91964549 22.36837863 3.91964549 22.36837863 0.4375 21.9375 C-2.6493684 23.28305802 -5.27318404 25.03415593 -8 27 C-7.68950274 25.56206608 -7.3765224 24.1246682 -7.0625 22.6875 C-6.88847656 21.88699219 -6.71445313 21.08648437 -6.53515625 20.26171875 C-6 18 -6 18 -5 15 C-6.1446875 14.566875 -6.1446875 14.566875 -7.3125 14.125 C-10 13 -10 13 -13 11 C-13 10.34 -13 9.68 -13 9 C-9.37 9 -5.74 9 -2 9 C-1.34 6.03 -0.68 3.06 0 0 Z " fill="#E8EBF0" transform="translate(127,149)"/>
<path d="M0 0 C0.66 0 1.32 0 2 0 C2.66 2.97 3.32 5.94 4 9 C7.63 9 11.26 9 15 9 C15 9.66 15 10.32 15 11 C12.79189025 12.8588679 10.3918738 14.37694278 8 16 C8.66 19.63 9.32 23.26 10 27 C8.948125 26.154375 7.89625 25.30875 6.8125 24.4375 C3.91964549 22.36837863 3.91964549 22.36837863 0.4375 21.9375 C-2.6493684 23.28305802 -5.27318404 25.03415593 -8 27 C-7.68950274 25.56206608 -7.3765224 24.1246682 -7.0625 22.6875 C-6.88847656 21.88699219 -6.71445312 21.08648437 -6.53515625 20.26171875 C-6 18 -6 18 -5 15 C-6.1446875 14.566875 -6.1446875 14.566875 -7.3125 14.125 C-10 13 -10 13 -13 11 C-13 10.34 -13 9.68 -13 9 C-9.37 9 -5.74 9 -2 9 C-1.34 6.03 -0.68 3.06 0 0 Z " fill="#E8EBF0" transform="translate(63,149)"/>
<path d="M0 0 C0.66 0 1.32 0 2 0 C2.66 2.97 3.32 5.94 4 9 C7.63 9 11.26 9 15 9 C15 9.66 15 10.32 15 11 C9.58823529 15 9.58823529 15 7 15 C7.34224609 15.92232422 7.34224609 15.92232422 7.69140625 16.86328125 C7.97886719 17.67152344 8.26632812 18.47976562 8.5625 19.3125 C8.85253906 20.11300781 9.14257812 20.91351563 9.44140625 21.73828125 C10 24 10 24 9 27 C8.113125 26.154375 7.22625 25.30875 6.3125 24.4375 C3.76794221 22.31023134 3.76794221 22.31023134 0.5 21.9375 C-2.62500359 23.26562652 -5.25076518 25.0179935 -8 27 C-7.68950274 25.56206608 -7.3765224 24.1246682 -7.0625 22.6875 C-6.88847656 21.88699219 -6.71445312 21.08648437 -6.53515625 20.26171875 C-6 18 -6 18 -5 15 C-6.1446875 14.566875 -6.1446875 14.566875 -7.3125 14.125 C-10 13 -10 13 -13 11 C-13 10.34 -13 9.68 -13 9 C-9.37 9 -5.74 9 -2 9 C-1.34 6.03 -0.68 3.06 0 0 Z " fill="#E9EDF1" transform="translate(351,13)"/>
<path d="M0 0 C0.66 0 1.32 0 2 0 C2.66 2.97 3.32 5.94 4 9 C7.63 9 11.26 9 15 9 C15 9.66 15 10.32 15 11 C9.58823529 15 9.58823529 15 7 15 C7.34224609 15.92232422 7.34224609 15.92232422 7.69140625 16.86328125 C7.97886719 17.67152344 8.26632812 18.47976562 8.5625 19.3125 C8.85253906 20.11300781 9.14257812 20.91351563 9.44140625 21.73828125 C10 24 10 24 9 27 C8.113125 26.154375 7.22625 25.30875 6.3125 24.4375 C3.76794221 22.31023134 3.76794221 22.31023134 0.5 21.9375 C-2.62500359 23.26562652 -5.25076518 25.0179935 -8 27 C-7.68950274 25.56206608 -7.3765224 24.1246682 -7.0625 22.6875 C-6.88847656 21.88699219 -6.71445312 21.08648437 -6.53515625 20.26171875 C-6 18 -6 18 -5 15 C-6.1446875 14.566875 -6.1446875 14.566875 -7.3125 14.125 C-10 13 -10 13 -13 11 C-13 10.34 -13 9.68 -13 9 C-9.37 9 -5.74 9 -2 9 C-1.34 6.03 -0.68 3.06 0 0 Z " fill="#E9EDF1" transform="translate(287,13)"/>
<path d="M0 0 C0.66 0 1.32 0 2 0 C2.66 2.97 3.32 5.94 4 9 C7.63 9 11.26 9 15 9 C15 9.66 15 10.32 15 11 C9.58823529 15 9.58823529 15 7 15 C7.34224609 15.92232422 7.34224609 15.92232422 7.69140625 16.86328125 C7.97886719 17.67152344 8.26632813 18.47976562 8.5625 19.3125 C8.85253906 20.11300781 9.14257812 20.91351563 9.44140625 21.73828125 C10 24 10 24 9 27 C8.113125 26.154375 7.22625 25.30875 6.3125 24.4375 C3.76794221 22.31023134 3.76794221 22.31023134 0.5 21.9375 C-2.62500359 23.26562652 -5.25076518 25.0179935 -8 27 C-7.68950274 25.56206608 -7.3765224 24.1246682 -7.0625 22.6875 C-6.88847656 21.88699219 -6.71445313 21.08648437 -6.53515625 20.26171875 C-6 18 -6 18 -5 15 C-6.1446875 14.566875 -6.1446875 14.566875 -7.3125 14.125 C-10 13 -10 13 -13 11 C-13 10.34 -13 9.68 -13 9 C-9.37 9 -5.74 9 -2 9 C-1.34 6.03 -0.68 3.06 0 0 Z " fill="#E9EDF1" transform="translate(223,13)"/>
<path d="M0 0 C0.66 0 1.32 0 2 0 C2.66 2.97 3.32 5.94 4 9 C7.63 9 11.26 9 15 9 C15 9.66 15 10.32 15 11 C9.58823529 15 9.58823529 15 7 15 C7.34224609 15.92232422 7.34224609 15.92232422 7.69140625 16.86328125 C7.97886719 17.67152344 8.26632813 18.47976562 8.5625 19.3125 C8.85253906 20.11300781 9.14257812 20.91351563 9.44140625 21.73828125 C10 24 10 24 9 27 C8.113125 26.154375 7.22625 25.30875 6.3125 24.4375 C3.76794221 22.31023134 3.76794221 22.31023134 0.5 21.9375 C-2.62500359 23.26562652 -5.25076518 25.0179935 -8 27 C-7.68950274 25.56206608 -7.3765224 24.1246682 -7.0625 22.6875 C-6.88847656 21.88699219 -6.71445313 21.08648437 -6.53515625 20.26171875 C-6 18 -6 18 -5 15 C-6.1446875 14.566875 -6.1446875 14.566875 -7.3125 14.125 C-10 13 -10 13 -13 11 C-13 10.34 -13 9.68 -13 9 C-9.37 9 -5.74 9 -2 9 C-1.34 6.03 -0.68 3.06 0 0 Z " fill="#E9EDF1" transform="translate(159,13)"/>
<path d="M0 0 C0.66 0 1.32 0 2 0 C2.66 2.97 3.32 5.94 4 9 C7.63 9 11.26 9 15 9 C15 9.66 15 10.32 15 11 C9.58823529 15 9.58823529 15 7 15 C7.34224609 15.92232422 7.34224609 15.92232422 7.69140625 16.86328125 C7.97886719 17.67152344 8.26632813 18.47976562 8.5625 19.3125 C8.85253906 20.11300781 9.14257812 20.91351563 9.44140625 21.73828125 C10 24 10 24 9 27 C8.113125 26.154375 7.22625 25.30875 6.3125 24.4375 C3.76794221 22.31023134 3.76794221 22.31023134 0.5 21.9375 C-2.62500359 23.26562652 -5.25076518 25.0179935 -8 27 C-7.68950274 25.56206608 -7.3765224 24.1246682 -7.0625 22.6875 C-6.88847656 21.88699219 -6.71445313 21.08648437 -6.53515625 20.26171875 C-6 18 -6 18 -5 15 C-6.1446875 14.566875 -6.1446875 14.566875 -7.3125 14.125 C-10 13 -10 13 -13 11 C-13 10.34 -13 9.68 -13 9 C-9.37 9 -5.74 9 -2 9 C-1.34 6.03 -0.68 3.06 0 0 Z " fill="#E9EDF1" transform="translate(95,13)"/>
<path d="M0 0 C0.66 0 1.32 0 2 0 C2.66 2.97 3.32 5.94 4 9 C7.63 9 11.26 9 15 9 C15 9.66 15 10.32 15 11 C9.58823529 15 9.58823529 15 7 15 C7.34224609 15.92232422 7.34224609 15.92232422 7.69140625 16.86328125 C7.97886719 17.67152344 8.26632813 18.47976562 8.5625 19.3125 C8.85253906 20.11300781 9.14257812 20.91351563 9.44140625 21.73828125 C10 24 10 24 9 27 C8.113125 26.154375 7.22625 25.30875 6.3125 24.4375 C3.76794221 22.31023134 3.76794221 22.31023134 0.5 21.9375 C-2.62500359 23.26562652 -5.25076518 25.0179935 -8 27 C-7.68950274 25.56206608 -7.3765224 24.1246682 -7.0625 22.6875 C-6.88847656 21.88699219 -6.71445312 21.08648437 -6.53515625 20.26171875 C-6 18 -6 18 -5 15 C-6.1446875 14.566875 -6.1446875 14.566875 -7.3125 14.125 C-10 13 -10 13 -13 11 C-13 10.34 -13 9.68 -13 9 C-9.37 9 -5.74 9 -2 9 C-1.34 6.03 -0.68 3.06 0 0 Z " fill="#E9EDF1" transform="translate(31,13)"/>
<path d="M0 0 C0.66 0 1.32 0 2 0 C2.66 3.3 3.32 6.6 4 10 C7.63 10 11.26 10 15 10 C10.375 14.875 10.375 14.875 7 16 C7.99 19.63 8.98 23.26 10 27 C6.95048605 25.47524303 4.63600494 24.07114674 2 22 C-0.25162472 23.04539719 -2.14589161 24.11156417 -4.125 25.625 C-6 27 -6 27 -8 27 C-6.515 21.555 -6.515 21.555 -5 16 C-6.32 15.34 -7.64 14.68 -9 14 C-10.37086915 12.70529025 -11.71340837 11.37849103 -13 10 C-9.37 10 -5.74 10 -2 10 C-1.34 6.7 -0.68 3.4 0 0 Z " fill="#EEF1F4" transform="translate(351,121)"/>
<path d="M0 0 C0.66 0 1.32 0 2 0 C2.66 3.3 3.32 6.6 4 10 C7.63 10 11.26 10 15 10 C10.375 14.875 10.375 14.875 7 16 C7.99 19.63 8.98 23.26 10 27 C6.95048605 25.47524303 4.63600494 24.07114674 2 22 C-0.25162472 23.04539719 -2.14589161 24.11156417 -4.125 25.625 C-6 27 -6 27 -8 27 C-6.515 21.555 -6.515 21.555 -5 16 C-6.32 15.34 -7.64 14.68 -9 14 C-10.37086915 12.70529025 -11.71340837 11.37849103 -13 10 C-9.37 10 -5.74 10 -2 10 C-1.34 6.7 -0.68 3.4 0 0 Z " fill="#EEF1F4" transform="translate(287,121)"/>
<path d="M0 0 C0.66 0 1.32 0 2 0 C2.66 3.3 3.32 6.6 4 10 C7.63 10 11.26 10 15 10 C10.375 14.875 10.375 14.875 7 16 C7.99 19.63 8.98 23.26 10 27 C6.95048605 25.47524303 4.63600494 24.07114674 2 22 C-0.25162472 23.04539719 -2.14589161 24.11156417 -4.125 25.625 C-6 27 -6 27 -8 27 C-6.515 21.555 -6.515 21.555 -5 16 C-6.32 15.34 -7.64 14.68 -9 14 C-10.37086915 12.70529025 -11.71340837 11.37849103 -13 10 C-9.37 10 -5.74 10 -2 10 C-1.34 6.7 -0.68 3.4 0 0 Z " fill="#EEF1F4" transform="translate(223,121)"/>
<path d="M0 0 C0.66 0 1.32 0 2 0 C2.66 3.3 3.32 6.6 4 10 C7.63 10 11.26 10 15 10 C10.375 14.875 10.375 14.875 7 16 C7.99 19.63 8.98 23.26 10 27 C6.95048605 25.47524303 4.63600494 24.07114674 2 22 C-0.25162472 23.04539719 -2.14589161 24.11156417 -4.125 25.625 C-6 27 -6 27 -8 27 C-6.515 21.555 -6.515 21.555 -5 16 C-6.32 15.34 -7.64 14.68 -9 14 C-10.37086915 12.70529025 -11.71340837 11.37849103 -13 10 C-9.37 10 -5.74 10 -2 10 C-1.34 6.7 -0.68 3.4 0 0 Z " fill="#EEF1F4" transform="translate(159,121)"/>
<path d="M0 0 C0.66 0 1.32 0 2 0 C2.66 3.3 3.32 6.6 4 10 C7.63 10 11.26 10 15 10 C10.375 14.875 10.375 14.875 7 16 C7.99 19.63 8.98 23.26 10 27 C6.95048605 25.47524303 4.63600494 24.07114674 2 22 C-0.25162472 23.04539719 -2.14589161 24.11156417 -4.125 25.625 C-6 27 -6 27 -8 27 C-6.515 21.555 -6.515 21.555 -5 16 C-6.32 15.34 -7.64 14.68 -9 14 C-10.37086915 12.70529025 -11.71340837 11.37849103 -13 10 C-9.37 10 -5.74 10 -2 10 C-1.34 6.7 -0.68 3.4 0 0 Z " fill="#EEF1F4" transform="translate(95,121)"/>
<path d="M0 0 C0.66 0 1.32 0 2 0 C2.66 3.3 3.32 6.6 4 10 C7.63 10 11.26 10 15 10 C10.375 14.875 10.375 14.875 7 16 C7.99 19.63 8.98 23.26 10 27 C6.95048605 25.47524303 4.63600494 24.07114674 2 22 C-0.25162472 23.04539719 -2.14589161 24.11156417 -4.125 25.625 C-6 27 -6 27 -8 27 C-6.515 21.555 -6.515 21.555 -5 16 C-6.32 15.34 -7.64 14.68 -9 14 C-10.37086915 12.70529025 -11.71340837 11.37849103 -13 10 C-9.37 10 -5.74 10 -2 10 C-1.34 6.7 -0.68 3.4 0 0 Z " fill="#EEF1F4" transform="translate(31,121)"/>
<path d="M0 0 C0.66 0 1.32 0 2 0 C3.31626692 3.61973402 4 6.09567131 4 10 C7.63 10 11.26 10 15 10 C10.25 14.875 10.25 14.875 8 16 C8.66 19.63 9.32 23.26 10 27 C8.30729167 25.95833333 6.61458333 24.91666667 4.921875 23.875 C2.74520615 22.72375977 2.74520615 22.72375977 -1 23 C-2.94773557 23.8387856 -2.94773557 23.8387856 -4.75 25 C-5.8225 25.66 -6.895 26.32 -8 27 C-7.34 23.37 -6.68 19.74 -6 16 C-7.155 15.195625 -8.31 14.39125 -9.5 13.5625 C-10.68653894 12.73616038 -11.8588092 11.88791631 -13 11 C-13 10.67 -13 10.34 -13 10 C-9.37 10 -5.74 10 -2 10 C-1.855625 8.906875 -1.71125 7.81375 -1.5625 6.6875 C-1 3 -1 3 0 0 Z " fill="#F0F2F5" transform="translate(351,230)"/>
<path d="M0 0 C0.66 0 1.32 0 2 0 C3.31626692 3.61973402 4 6.09567131 4 10 C7.63 10 11.26 10 15 10 C10.25 14.875 10.25 14.875 8 16 C8.66 19.63 9.32 23.26 10 27 C8.30729167 25.95833333 6.61458333 24.91666667 4.921875 23.875 C2.74520615 22.72375977 2.74520615 22.72375977 -1 23 C-2.94773557 23.8387856 -2.94773557 23.8387856 -4.75 25 C-5.8225 25.66 -6.895 26.32 -8 27 C-7.34 23.37 -6.68 19.74 -6 16 C-7.155 15.195625 -8.31 14.39125 -9.5 13.5625 C-10.68653894 12.73616038 -11.8588092 11.88791631 -13 11 C-13 10.67 -13 10.34 -13 10 C-9.37 10 -5.74 10 -2 10 C-1.855625 8.906875 -1.71125 7.81375 -1.5625 6.6875 C-1 3 -1 3 0 0 Z " fill="#F0F2F5" transform="translate(287,230)"/>
<path d="M0 0 C0.66 0 1.32 0 2 0 C3.31626692 3.61973402 4 6.09567131 4 10 C7.63 10 11.26 10 15 10 C10.25 14.875 10.25 14.875 8 16 C8.66 19.63 9.32 23.26 10 27 C8.30729167 25.95833333 6.61458333 24.91666667 4.921875 23.875 C2.74520615 22.72375977 2.74520615 22.72375977 -1 23 C-2.94773557 23.8387856 -2.94773557 23.8387856 -4.75 25 C-5.8225 25.66 -6.895 26.32 -8 27 C-7.34 23.37 -6.68 19.74 -6 16 C-7.155 15.195625 -8.31 14.39125 -9.5 13.5625 C-10.68653894 12.73616038 -11.8588092 11.88791631 -13 11 C-13 10.67 -13 10.34 -13 10 C-9.37 10 -5.74 10 -2 10 C-1.855625 8.906875 -1.71125 7.81375 -1.5625 6.6875 C-1 3 -1 3 0 0 Z " fill="#F0F2F5" transform="translate(223,230)"/>
<path d="M0 0 C0.66 0 1.32 0 2 0 C3.31626692 3.61973402 4 6.09567131 4 10 C7.63 10 11.26 10 15 10 C10.25 14.875 10.25 14.875 8 16 C8.66 19.63 9.32 23.26 10 27 C8.30729167 25.95833333 6.61458333 24.91666667 4.921875 23.875 C2.74520615 22.72375977 2.74520615 22.72375977 -1 23 C-2.94773557 23.8387856 -2.94773557 23.8387856 -4.75 25 C-5.8225 25.66 -6.895 26.32 -8 27 C-7.34 23.37 -6.68 19.74 -6 16 C-7.155 15.195625 -8.31 14.39125 -9.5 13.5625 C-10.68653894 12.73616038 -11.8588092 11.88791631 -13 11 C-13 10.67 -13 10.34 -13 10 C-9.37 10 -5.74 10 -2 10 C-1.855625 8.906875 -1.71125 7.81375 -1.5625 6.6875 C-1 3 -1 3 0 0 Z " fill="#F0F2F5" transform="translate(159,230)"/>
<path d="M0 0 C0.66 0 1.32 0 2 0 C3.31626692 3.61973402 4 6.09567131 4 10 C7.63 10 11.26 10 15 10 C10.25 14.875 10.25 14.875 8 16 C8.66 19.63 9.32 23.26 10 27 C8.30729167 25.95833333 6.61458333 24.91666667 4.921875 23.875 C2.74520615 22.72375977 2.74520615 22.72375977 -1 23 C-2.94773557 23.8387856 -2.94773557 23.8387856 -4.75 25 C-5.8225 25.66 -6.895 26.32 -8 27 C-7.34 23.37 -6.68 19.74 -6 16 C-7.155 15.195625 -8.31 14.39125 -9.5 13.5625 C-10.68653894 12.73616038 -11.8588092 11.88791631 -13 11 C-13 10.67 -13 10.34 -13 10 C-9.37 10 -5.74 10 -2 10 C-1.855625 8.906875 -1.71125 7.81375 -1.5625 6.6875 C-1 3 -1 3 0 0 Z " fill="#F0F2F5" transform="translate(95,230)"/>
<path d="M0 0 C0.66 0 1.32 0 2 0 C3.31626692 3.61973402 4 6.09567131 4 10 C7.63 10 11.26 10 15 10 C10.25 14.875 10.25 14.875 8 16 C8.66 19.63 9.32 23.26 10 27 C8.30729167 25.95833333 6.61458333 24.91666667 4.921875 23.875 C2.74520615 22.72375977 2.74520615 22.72375977 -1 23 C-2.94773557 23.8387856 -2.94773557 23.8387856 -4.75 25 C-5.8225 25.66 -6.895 26.32 -8 27 C-7.34 23.37 -6.68 19.74 -6 16 C-7.155 15.195625 -8.31 14.39125 -9.5 13.5625 C-10.68653894 12.73616038 -11.8588092 11.88791631 -13 11 C-13 10.67 -13 10.34 -13 10 C-9.37 10 -5.74 10 -2 10 C-1.855625 8.906875 -1.71125 7.81375 -1.5625 6.6875 C-1 3 -1 3 0 0 Z " fill="#F0F2F5" transform="translate(31,230)"/>
<path d="M0 0 C0.66 0 1.32 0 2 0 C3.31626692 3.61973402 4 6.09567131 4 10 C7.63 10 11.26 10 15 10 C10.25 14.875 10.25 14.875 8 16 C8.66 19.63 9.32 23.26 10 27 C8.783125 26.13375 7.56625 25.2675 6.3125 24.375 C3.0720004 22.23923873 3.0720004 22.23923873 -0.6875 22.5 C-1.450625 22.995 -2.21375 23.49 -3 24 C-3.928125 24.53625 -4.85625 25.0725 -5.8125 25.625 C-6.8953125 26.305625 -6.8953125 26.305625 -8 27 C-7.34 23.37 -6.68 19.74 -6 16 C-7.155 15.195625 -8.31 14.39125 -9.5 13.5625 C-10.68653894 12.73616038 -11.8588092 11.88791631 -13 11 C-13 10.67 -13 10.34 -13 10 C-9.37 10 -5.74 10 -2 10 C-1.855625 8.906875 -1.71125 7.81375 -1.5625 6.6875 C-1 3 -1 3 0 0 Z " fill="#F2F4F6" transform="translate(319,94)"/>
<path d="M0 0 C0.66 0 1.32 0 2 0 C3.31626692 3.61973402 4 6.09567131 4 10 C7.63 10 11.26 10 15 10 C10.25 14.875 10.25 14.875 8 16 C8.66 19.63 9.32 23.26 10 27 C8.783125 26.13375 7.56625 25.2675 6.3125 24.375 C3.0720004 22.23923873 3.0720004 22.23923873 -0.6875 22.5 C-1.450625 22.995 -2.21375 23.49 -3 24 C-3.928125 24.53625 -4.85625 25.0725 -5.8125 25.625 C-6.8953125 26.305625 -6.8953125 26.305625 -8 27 C-7.34 23.37 -6.68 19.74 -6 16 C-7.155 15.195625 -8.31 14.39125 -9.5 13.5625 C-10.68653894 12.73616038 -11.8588092 11.88791631 -13 11 C-13 10.67 -13 10.34 -13 10 C-9.37 10 -5.74 10 -2 10 C-1.855625 8.906875 -1.71125 7.81375 -1.5625 6.6875 C-1 3 -1 3 0 0 Z " fill="#F2F4F6" transform="translate(255,94)"/>
<path d="M0 0 C0.66 0 1.32 0 2 0 C3.31626692 3.61973402 4 6.09567131 4 10 C7.63 10 11.26 10 15 10 C10.25 14.875 10.25 14.875 8 16 C8.66 19.63 9.32 23.26 10 27 C8.783125 26.13375 7.56625 25.2675 6.3125 24.375 C3.0720004 22.23923873 3.0720004 22.23923873 -0.6875 22.5 C-1.450625 22.995 -2.21375 23.49 -3 24 C-3.928125 24.53625 -4.85625 25.0725 -5.8125 25.625 C-6.8953125 26.305625 -6.8953125 26.305625 -8 27 C-7.34 23.37 -6.68 19.74 -6 16 C-7.155 15.195625 -8.31 14.39125 -9.5 13.5625 C-10.68653894 12.73616038 -11.8588092 11.88791631 -13 11 C-13 10.67 -13 10.34 -13 10 C-9.37 10 -5.74 10 -2 10 C-1.855625 8.906875 -1.71125 7.81375 -1.5625 6.6875 C-1 3 -1 3 0 0 Z " fill="#F2F4F6" transform="translate(191,94)"/>
<path d="M0 0 C0.66 0 1.32 0 2 0 C3.31626692 3.61973402 4 6.09567131 4 10 C7.63 10 11.26 10 15 10 C10.25 14.875 10.25 14.875 8 16 C8.66 19.63 9.32 23.26 10 27 C8.783125 26.13375 7.56625 25.2675 6.3125 24.375 C3.0720004 22.23923873 3.0720004 22.23923873 -0.6875 22.5 C-1.450625 22.995 -2.21375 23.49 -3 24 C-3.928125 24.53625 -4.85625 25.0725 -5.8125 25.625 C-6.8953125 26.305625 -6.8953125 26.305625 -8 27 C-7.34 23.37 -6.68 19.74 -6 16 C-7.155 15.195625 -8.31 14.39125 -9.5 13.5625 C-10.68653894 12.73616038 -11.8588092 11.88791631 -13 11 C-13 10.67 -13 10.34 -13 10 C-9.37 10 -5.74 10 -2 10 C-1.855625 8.906875 -1.71125 7.81375 -1.5625 6.6875 C-1 3 -1 3 0 0 Z " fill="#F2F4F6" transform="translate(127,94)"/>
<path d="M0 0 C0.66 0 1.32 0 2 0 C3.31626692 3.61973402 4 6.09567131 4 10 C7.63 10 11.26 10 15 10 C10.25 14.875 10.25 14.875 8 16 C8.66 19.63 9.32 23.26 10 27 C8.783125 26.13375 7.56625 25.2675 6.3125 24.375 C3.0720004 22.23923873 3.0720004 22.23923873 -0.6875 22.5 C-1.450625 22.995 -2.21375 23.49 -3 24 C-3.928125 24.53625 -4.85625 25.0725 -5.8125 25.625 C-6.8953125 26.305625 -6.8953125 26.305625 -8 27 C-7.34 23.37 -6.68 19.74 -6 16 C-7.155 15.195625 -8.31 14.39125 -9.5 13.5625 C-10.68653894 12.73616038 -11.8588092 11.88791631 -13 11 C-13 10.67 -13 10.34 -13 10 C-9.37 10 -5.74 10 -2 10 C-1.855625 8.906875 -1.71125 7.81375 -1.5625 6.6875 C-1 3 -1 3 0 0 Z " fill="#F2F4F6" transform="translate(63,94)"/>
<path d="M0 0 C0.66 0 1.32 0 2 0 C3.31626692 3.61973402 4 6.09567131 4 10 C7.63 10 11.26 10 15 10 C12.74259377 12.33524782 10.7194239 14.18705073 8 16 C8.66 19.63 9.32 23.26 10 27 C8.783125 26.13375 7.56625 25.2675 6.3125 24.375 C3.0720004 22.23923873 3.0720004 22.23923873 -0.6875 22.5 C-1.450625 22.995 -2.21375 23.49 -3 24 C-3.928125 24.53625 -4.85625 25.0725 -5.8125 25.625 C-6.8953125 26.305625 -6.8953125 26.305625 -8 27 C-7.34 23.37 -6.68 19.74 -6 16 C-7.155 15.195625 -8.31 14.39125 -9.5 13.5625 C-10.68653894 12.73616038 -11.8588092 11.88791631 -13 11 C-13 10.67 -13 10.34 -13 10 C-9.37 10 -5.74 10 -2 10 C-1.855625 8.906875 -1.71125 7.81375 -1.5625 6.6875 C-1 3 -1 3 0 0 Z " fill="#F2F4F7" transform="translate(319,203)"/>
<path d="M0 0 C0.66 0 1.32 0 2 0 C3.31626692 3.61973402 4 6.09567131 4 10 C7.63 10 11.26 10 15 10 C12.74259377 12.33524782 10.7194239 14.18705073 8 16 C8.66 19.63 9.32 23.26 10 27 C8.783125 26.13375 7.56625 25.2675 6.3125 24.375 C3.0720004 22.23923873 3.0720004 22.23923873 -0.6875 22.5 C-1.450625 22.995 -2.21375 23.49 -3 24 C-3.928125 24.53625 -4.85625 25.0725 -5.8125 25.625 C-6.8953125 26.305625 -6.8953125 26.305625 -8 27 C-7.34 23.37 -6.68 19.74 -6 16 C-7.155 15.195625 -8.31 14.39125 -9.5 13.5625 C-10.68653894 12.73616038 -11.8588092 11.88791631 -13 11 C-13 10.67 -13 10.34 -13 10 C-9.37 10 -5.74 10 -2 10 C-1.855625 8.906875 -1.71125 7.81375 -1.5625 6.6875 C-1 3 -1 3 0 0 Z " fill="#F2F4F7" transform="translate(255,203)"/>
<path d="M0 0 C0.66 0 1.32 0 2 0 C3.31626692 3.61973402 4 6.09567131 4 10 C7.63 10 11.26 10 15 10 C12.74259377 12.33524782 10.7194239 14.18705073 8 16 C8.66 19.63 9.32 23.26 10 27 C8.783125 26.13375 7.56625 25.2675 6.3125 24.375 C3.0720004 22.23923873 3.0720004 22.23923873 -0.6875 22.5 C-1.450625 22.995 -2.21375 23.49 -3 24 C-3.928125 24.53625 -4.85625 25.0725 -5.8125 25.625 C-6.8953125 26.305625 -6.8953125 26.305625 -8 27 C-7.34 23.37 -6.68 19.74 -6 16 C-7.155 15.195625 -8.31 14.39125 -9.5 13.5625 C-10.68653894 12.73616038 -11.8588092 11.88791631 -13 11 C-13 10.67 -13 10.34 -13 10 C-9.37 10 -5.74 10 -2 10 C-1.855625 8.906875 -1.71125 7.81375 -1.5625 6.6875 C-1 3 -1 3 0 0 Z " fill="#F2F4F7" transform="translate(191,203)"/>
<path d="M0 0 C0.66 0 1.32 0 2 0 C3.31626692 3.61973402 4 6.09567131 4 10 C7.63 10 11.26 10 15 10 C12.74259377 12.33524782 10.7194239 14.18705073 8 16 C8.66 19.63 9.32 23.26 10 27 C8.783125 26.13375 7.56625 25.2675 6.3125 24.375 C3.0720004 22.23923873 3.0720004 22.23923873 -0.6875 22.5 C-1.450625 22.995 -2.21375 23.49 -3 24 C-3.928125 24.53625 -4.85625 25.0725 -5.8125 25.625 C-6.8953125 26.305625 -6.8953125 26.305625 -8 27 C-7.34 23.37 -6.68 19.74 -6 16 C-7.155 15.195625 -8.31 14.39125 -9.5 13.5625 C-10.68653894 12.73616038 -11.8588092 11.88791631 -13 11 C-13 10.67 -13 10.34 -13 10 C-9.37 10 -5.74 10 -2 10 C-1.855625 8.906875 -1.71125 7.81375 -1.5625 6.6875 C-1 3 -1 3 0 0 Z " fill="#F2F4F7" transform="translate(127,203)"/>
<path d="M0 0 C0.66 0 1.32 0 2 0 C3.31626692 3.61973402 4 6.09567131 4 10 C7.63 10 11.26 10 15 10 C12.74259377 12.33524782 10.7194239 14.18705073 8 16 C8.66 19.63 9.32 23.26 10 27 C8.783125 26.13375 7.56625 25.2675 6.3125 24.375 C3.0720004 22.23923873 3.0720004 22.23923873 -0.6875 22.5 C-1.450625 22.995 -2.21375 23.49 -3 24 C-3.928125 24.53625 -4.85625 25.0725 -5.8125 25.625 C-6.8953125 26.305625 -6.8953125 26.305625 -8 27 C-7.34 23.37 -6.68 19.74 -6 16 C-7.155 15.195625 -8.31 14.39125 -9.5 13.5625 C-10.68653894 12.73616038 -11.8588092 11.88791631 -13 11 C-13 10.67 -13 10.34 -13 10 C-9.37 10 -5.74 10 -2 10 C-1.855625 8.906875 -1.71125 7.81375 -1.5625 6.6875 C-1 3 -1 3 0 0 Z " fill="#F2F4F7" transform="translate(63,203)"/>
<path d="M0 0 C0.66 0 1.32 0 2 0 C3.31626692 3.61973402 4 6.09567131 4 10 C7.63 10 11.26 10 15 10 C12.74259377 12.33524782 10.7194239 14.18705073 8 16 C8.66 19.63 9.32 23.26 10 27 C8.783125 26.13375 7.56625 25.2675 6.3125 24.375 C3.0720004 22.23923873 3.0720004 22.23923873 -0.6875 22.5 C-1.450625 22.995 -2.21375 23.49 -3 24 C-3.928125 24.53625 -4.85625 25.0725 -5.8125 25.625 C-6.8953125 26.305625 -6.8953125 26.305625 -8 27 C-7.34 23.37 -6.68 19.74 -6 16 C-7.155 15.195625 -8.31 14.39125 -9.5 13.5625 C-10.68653894 12.73616038 -11.8588092 11.88791631 -13 11 C-13 10.67 -13 10.34 -13 10 C-9.37 10 -5.74 10 -2 10 C-1.855625 8.906875 -1.71125 7.81375 -1.5625 6.6875 C-1 3 -1 3 0 0 Z " fill="#F2F4F6" transform="translate(351,67)"/>
<path d="M0 0 C0.66 0 1.32 0 2 0 C3.31626692 3.61973402 4 6.09567131 4 10 C7.63 10 11.26 10 15 10 C12.74259377 12.33524782 10.7194239 14.18705073 8 16 C8.66 19.63 9.32 23.26 10 27 C8.783125 26.13375 7.56625 25.2675 6.3125 24.375 C3.0720004 22.23923873 3.0720004 22.23923873 -0.6875 22.5 C-1.450625 22.995 -2.21375 23.49 -3 24 C-3.928125 24.53625 -4.85625 25.0725 -5.8125 25.625 C-6.8953125 26.305625 -6.8953125 26.305625 -8 27 C-7.34 23.37 -6.68 19.74 -6 16 C-7.155 15.195625 -8.31 14.39125 -9.5 13.5625 C-10.68653894 12.73616038 -11.8588092 11.88791631 -13 11 C-13 10.67 -13 10.34 -13 10 C-9.37 10 -5.74 10 -2 10 C-1.855625 8.906875 -1.71125 7.81375 -1.5625 6.6875 C-1 3 -1 3 0 0 Z " fill="#F2F4F6" transform="translate(287,67)"/>
<path d="M0 0 C0.66 0 1.32 0 2 0 C3.31626692 3.61973402 4 6.09567131 4 10 C7.63 10 11.26 10 15 10 C12.74259377 12.33524782 10.7194239 14.18705073 8 16 C8.66 19.63 9.32 23.26 10 27 C8.783125 26.13375 7.56625 25.2675 6.3125 24.375 C3.0720004 22.23923873 3.0720004 22.23923873 -0.6875 22.5 C-1.450625 22.995 -2.21375 23.49 -3 24 C-3.928125 24.53625 -4.85625 25.0725 -5.8125 25.625 C-6.8953125 26.305625 -6.8953125 26.305625 -8 27 C-7.34 23.37 -6.68 19.74 -6 16 C-7.155 15.195625 -8.31 14.39125 -9.5 13.5625 C-10.68653894 12.73616038 -11.8588092 11.88791631 -13 11 C-13 10.67 -13 10.34 -13 10 C-9.37 10 -5.74 10 -2 10 C-1.855625 8.906875 -1.71125 7.81375 -1.5625 6.6875 C-1 3 -1 3 0 0 Z " fill="#F2F4F6" transform="translate(223,67)"/>
<path d="M0 0 C0.66 0 1.32 0 2 0 C3.31626692 3.61973402 4 6.09567131 4 10 C7.63 10 11.26 10 15 10 C12.74259377 12.33524782 10.7194239 14.18705073 8 16 C8.66 19.63 9.32 23.26 10 27 C8.783125 26.13375 7.56625 25.2675 6.3125 24.375 C3.0720004 22.23923873 3.0720004 22.23923873 -0.6875 22.5 C-1.450625 22.995 -2.21375 23.49 -3 24 C-3.928125 24.53625 -4.85625 25.0725 -5.8125 25.625 C-6.8953125 26.305625 -6.8953125 26.305625 -8 27 C-7.34 23.37 -6.68 19.74 -6 16 C-7.155 15.195625 -8.31 14.39125 -9.5 13.5625 C-10.68653894 12.73616038 -11.8588092 11.88791631 -13 11 C-13 10.67 -13 10.34 -13 10 C-9.37 10 -5.74 10 -2 10 C-1.855625 8.906875 -1.71125 7.81375 -1.5625 6.6875 C-1 3 -1 3 0 0 Z " fill="#F2F4F6" transform="translate(159,67)"/>
<path d="M0 0 C0.66 0 1.32 0 2 0 C3.31626692 3.61973402 4 6.09567131 4 10 C7.63 10 11.26 10 15 10 C12.74259377 12.33524782 10.7194239 14.18705073 8 16 C8.66 19.63 9.32 23.26 10 27 C8.783125 26.13375 7.56625 25.2675 6.3125 24.375 C3.0720004 22.23923873 3.0720004 22.23923873 -0.6875 22.5 C-1.450625 22.995 -2.21375 23.49 -3 24 C-3.928125 24.53625 -4.85625 25.0725 -5.8125 25.625 C-6.8953125 26.305625 -6.8953125 26.305625 -8 27 C-7.34 23.37 -6.68 19.74 -6 16 C-7.155 15.195625 -8.31 14.39125 -9.5 13.5625 C-10.68653894 12.73616038 -11.8588092 11.88791631 -13 11 C-13 10.67 -13 10.34 -13 10 C-9.37 10 -5.74 10 -2 10 C-1.855625 8.906875 -1.71125 7.81375 -1.5625 6.6875 C-1 3 -1 3 0 0 Z " fill="#F2F4F6" transform="translate(95,67)"/>
<path d="M0 0 C0.66 0 1.32 0 2 0 C3.31626692 3.61973402 4 6.09567131 4 10 C7.63 10 11.26 10 15 10 C12.74259377 12.33524782 10.7194239 14.18705073 8 16 C8.66 19.63 9.32 23.26 10 27 C8.783125 26.13375 7.56625 25.2675 6.3125 24.375 C3.0720004 22.23923873 3.0720004 22.23923873 -0.6875 22.5 C-1.450625 22.995 -2.21375 23.49 -3 24 C-3.928125 24.53625 -4.85625 25.0725 -5.8125 25.625 C-6.8953125 26.305625 -6.8953125 26.305625 -8 27 C-7.34 23.37 -6.68 19.74 -6 16 C-7.155 15.195625 -8.31 14.39125 -9.5 13.5625 C-10.68653894 12.73616038 -11.8588092 11.88791631 -13 11 C-13 10.67 -13 10.34 -13 10 C-9.37 10 -5.74 10 -2 10 C-1.855625 8.906875 -1.71125 7.81375 -1.5625 6.6875 C-1 3 -1 3 0 0 Z " fill="#F2F4F6" transform="translate(31,67)"/>
<path d="M0 0 C0.66 0 1.32 0 2 0 C3.31626692 3.61973402 4 6.09567131 4 10 C7.3 10 10.6 10 14 10 C13.195625 10.763125 12.39125 11.52625 11.5625 12.3125 C8.83200976 14.79430898 8.83200976 14.79430898 8 18 C8.31052686 20.30336625 8.31052686 20.30336625 8.9375 22.6875 C9.13214844 23.49574219 9.32679688 24.30398437 9.52734375 25.13671875 C9.68332031 25.75160156 9.83929688 26.36648437 10 27 C9.55269531 26.62746094 9.10539062 26.25492188 8.64453125 25.87109375 C4.95116661 22.86378718 4.95116661 22.86378718 0.4375 21.9375 C-2.6493684 23.28305802 -5.27318404 25.03415593 -8 27 C-7.34 23.37 -6.68 19.74 -6 16 C-6.99 15.195625 -7.98 14.39125 -9 13.5625 C-9.99 12.716875 -10.98 11.87125 -12 11 C-12 10.67 -12 10.34 -12 10 C-8.7 10 -5.4 10 -2 10 C-1.855625 8.906875 -1.71125 7.81375 -1.5625 6.6875 C-1 3 -1 3 0 0 Z " fill="#F0F2F5" transform="translate(319,40)"/>
<path d="M0 0 C0.66 0 1.32 0 2 0 C3.31626692 3.61973402 4 6.09567131 4 10 C7.3 10 10.6 10 14 10 C13.195625 10.763125 12.39125 11.52625 11.5625 12.3125 C8.83200976 14.79430898 8.83200976 14.79430898 8 18 C8.31052686 20.30336625 8.31052686 20.30336625 8.9375 22.6875 C9.13214844 23.49574219 9.32679688 24.30398437 9.52734375 25.13671875 C9.68332031 25.75160156 9.83929688 26.36648437 10 27 C9.55269531 26.62746094 9.10539062 26.25492188 8.64453125 25.87109375 C4.95116661 22.86378718 4.95116661 22.86378718 0.4375 21.9375 C-2.6493684 23.28305802 -5.27318404 25.03415593 -8 27 C-7.34 23.37 -6.68 19.74 -6 16 C-6.99 15.195625 -7.98 14.39125 -9 13.5625 C-9.99 12.716875 -10.98 11.87125 -12 11 C-12 10.67 -12 10.34 -12 10 C-8.7 10 -5.4 10 -2 10 C-1.855625 8.906875 -1.71125 7.81375 -1.5625 6.6875 C-1 3 -1 3 0 0 Z " fill="#F0F2F5" transform="translate(255,40)"/>
<path d="M0 0 C0.66 0 1.32 0 2 0 C3.31626692 3.61973402 4 6.09567131 4 10 C7.3 10 10.6 10 14 10 C13.195625 10.763125 12.39125 11.52625 11.5625 12.3125 C8.83200976 14.79430898 8.83200976 14.79430898 8 18 C8.31052686 20.30336625 8.31052686 20.30336625 8.9375 22.6875 C9.13214844 23.49574219 9.32679688 24.30398437 9.52734375 25.13671875 C9.68332031 25.75160156 9.83929688 26.36648437 10 27 C9.55269531 26.62746094 9.10539062 26.25492188 8.64453125 25.87109375 C4.95116661 22.86378718 4.95116661 22.86378718 0.4375 21.9375 C-2.6493684 23.28305802 -5.27318404 25.03415593 -8 27 C-7.34 23.37 -6.68 19.74 -6 16 C-6.99 15.195625 -7.98 14.39125 -9 13.5625 C-9.99 12.716875 -10.98 11.87125 -12 11 C-12 10.67 -12 10.34 -12 10 C-8.7 10 -5.4 10 -2 10 C-1.855625 8.906875 -1.71125 7.81375 -1.5625 6.6875 C-1 3 -1 3 0 0 Z " fill="#F0F2F5" transform="translate(191,40)"/>
<path d="M0 0 C0.66 0 1.32 0 2 0 C3.31626692 3.61973402 4 6.09567131 4 10 C7.3 10 10.6 10 14 10 C13.195625 10.763125 12.39125 11.52625 11.5625 12.3125 C8.83200976 14.79430898 8.83200976 14.79430898 8 18 C8.31052686 20.30336625 8.31052686 20.30336625 8.9375 22.6875 C9.13214844 23.49574219 9.32679688 24.30398437 9.52734375 25.13671875 C9.68332031 25.75160156 9.83929688 26.36648437 10 27 C9.55269531 26.62746094 9.10539062 26.25492188 8.64453125 25.87109375 C4.95116661 22.86378718 4.95116661 22.86378718 0.4375 21.9375 C-2.6493684 23.28305802 -5.27318404 25.03415593 -8 27 C-7.34 23.37 -6.68 19.74 -6 16 C-6.99 15.195625 -7.98 14.39125 -9 13.5625 C-9.99 12.716875 -10.98 11.87125 -12 11 C-12 10.67 -12 10.34 -12 10 C-8.7 10 -5.4 10 -2 10 C-1.855625 8.906875 -1.71125 7.81375 -1.5625 6.6875 C-1 3 -1 3 0 0 Z " fill="#F0F2F5" transform="translate(127,40)"/>
<path d="M0 0 C0.66 0 1.32 0 2 0 C3.31626692 3.61973402 4 6.09567131 4 10 C7.3 10 10.6 10 14 10 C13.195625 10.763125 12.39125 11.52625 11.5625 12.3125 C8.83200976 14.79430898 8.83200976 14.79430898 8 18 C8.31052686 20.30336625 8.31052686 20.30336625 8.9375 22.6875 C9.13214844 23.49574219 9.32679687 24.30398437 9.52734375 25.13671875 C9.68332031 25.75160156 9.83929688 26.36648437 10 27 C9.55269531 26.62746094 9.10539062 26.25492188 8.64453125 25.87109375 C4.95116661 22.86378718 4.95116661 22.86378718 0.4375 21.9375 C-2.6493684 23.28305802 -5.27318404 25.03415593 -8 27 C-7.34 23.37 -6.68 19.74 -6 16 C-6.99 15.195625 -7.98 14.39125 -9 13.5625 C-9.99 12.716875 -10.98 11.87125 -12 11 C-12 10.67 -12 10.34 -12 10 C-8.7 10 -5.4 10 -2 10 C-1.855625 8.906875 -1.71125 7.81375 -1.5625 6.6875 C-1 3 -1 3 0 0 Z " fill="#F0F2F5" transform="translate(63,40)"/>
<path d="M0 0 C0.66 0 1.32 0 2 0 C3.31626692 3.61973402 4 6.09567131 4 10 C7.3 10 10.6 10 14 10 C13.195625 10.763125 12.39125 11.52625 11.5625 12.3125 C8.83200976 14.79430898 8.83200976 14.79430898 8 18 C8.31052686 20.30336625 8.31052686 20.30336625 8.9375 22.6875 C9.13214844 23.49574219 9.32679688 24.30398437 9.52734375 25.13671875 C9.68332031 25.75160156 9.83929688 26.36648437 10 27 C9.55269531 26.62746094 9.10539062 26.25492188 8.64453125 25.87109375 C4.95116661 22.86378718 4.95116661 22.86378718 0.4375 21.9375 C-2.6493684 23.28305802 -5.27318404 25.03415593 -8 27 C-7.34 23.37 -6.68 19.74 -6 16 C-6.99 15.195625 -7.98 14.39125 -9 13.5625 C-9.99 12.716875 -10.98 11.87125 -12 11 C-12 10.67 -12 10.34 -12 10 C-8.7 10 -5.4 10 -2 10 C-1.855625 8.906875 -1.71125 7.81375 -1.5625 6.6875 C-1 3 -1 3 0 0 Z " fill="#F1F3F6" transform="translate(351,176)"/>
<path d="M0 0 C0.66 0 1.32 0 2 0 C3.31626692 3.61973402 4 6.09567131 4 10 C7.3 10 10.6 10 14 10 C13.195625 10.763125 12.39125 11.52625 11.5625 12.3125 C8.83200976 14.79430898 8.83200976 14.79430898 8 18 C8.31052686 20.30336625 8.31052686 20.30336625 8.9375 22.6875 C9.13214844 23.49574219 9.32679688 24.30398437 9.52734375 25.13671875 C9.68332031 25.75160156 9.83929688 26.36648437 10 27 C9.55269531 26.62746094 9.10539062 26.25492188 8.64453125 25.87109375 C4.95116661 22.86378718 4.95116661 22.86378718 0.4375 21.9375 C-2.6493684 23.28305802 -5.27318404 25.03415593 -8 27 C-7.34 23.37 -6.68 19.74 -6 16 C-6.99 15.195625 -7.98 14.39125 -9 13.5625 C-9.99 12.716875 -10.98 11.87125 -12 11 C-12 10.67 -12 10.34 -12 10 C-8.7 10 -5.4 10 -2 10 C-1.855625 8.906875 -1.71125 7.81375 -1.5625 6.6875 C-1 3 -1 3 0 0 Z " fill="#F1F3F6" transform="translate(287,176)"/>
<path d="M0 0 C0.66 0 1.32 0 2 0 C3.31626692 3.61973402 4 6.09567131 4 10 C7.3 10 10.6 10 14 10 C13.195625 10.763125 12.39125 11.52625 11.5625 12.3125 C8.83200976 14.79430898 8.83200976 14.79430898 8 18 C8.31052686 20.30336625 8.31052686 20.30336625 8.9375 22.6875 C9.13214844 23.49574219 9.32679688 24.30398437 9.52734375 25.13671875 C9.68332031 25.75160156 9.83929688 26.36648437 10 27 C9.55269531 26.62746094 9.10539062 26.25492188 8.64453125 25.87109375 C4.95116661 22.86378718 4.95116661 22.86378718 0.4375 21.9375 C-2.6493684 23.28305802 -5.27318404 25.03415593 -8 27 C-7.34 23.37 -6.68 19.74 -6 16 C-6.99 15.195625 -7.98 14.39125 -9 13.5625 C-9.99 12.716875 -10.98 11.87125 -12 11 C-12 10.67 -12 10.34 -12 10 C-8.7 10 -5.4 10 -2 10 C-1.855625 8.906875 -1.71125 7.81375 -1.5625 6.6875 C-1 3 -1 3 0 0 Z " fill="#F1F3F6" transform="translate(223,176)"/>
<path d="M0 0 C0.66 0 1.32 0 2 0 C3.31626692 3.61973402 4 6.09567131 4 10 C7.3 10 10.6 10 14 10 C13.195625 10.763125 12.39125 11.52625 11.5625 12.3125 C8.83200976 14.79430898 8.83200976 14.79430898 8 18 C8.31052686 20.30336625 8.31052686 20.30336625 8.9375 22.6875 C9.13214844 23.49574219 9.32679688 24.30398437 9.52734375 25.13671875 C9.68332031 25.75160156 9.83929688 26.36648437 10 27 C9.55269531 26.62746094 9.10539062 26.25492188 8.64453125 25.87109375 C4.95116661 22.86378718 4.95116661 22.86378718 0.4375 21.9375 C-2.6493684 23.28305802 -5.27318404 25.03415593 -8 27 C-7.34 23.37 -6.68 19.74 -6 16 C-6.99 15.195625 -7.98 14.39125 -9 13.5625 C-9.99 12.716875 -10.98 11.87125 -12 11 C-12 10.67 -12 10.34 -12 10 C-8.7 10 -5.4 10 -2 10 C-1.855625 8.906875 -1.71125 7.81375 -1.5625 6.6875 C-1 3 -1 3 0 0 Z " fill="#F1F3F6" transform="translate(159,176)"/>
<path d="M0 0 C0.66 0 1.32 0 2 0 C3.31626692 3.61973402 4 6.09567131 4 10 C7.3 10 10.6 10 14 10 C13.195625 10.763125 12.39125 11.52625 11.5625 12.3125 C8.83200976 14.79430898 8.83200976 14.79430898 8 18 C8.31052686 20.30336625 8.31052686 20.30336625 8.9375 22.6875 C9.13214844 23.49574219 9.32679687 24.30398437 9.52734375 25.13671875 C9.68332031 25.75160156 9.83929688 26.36648437 10 27 C9.55269531 26.62746094 9.10539062 26.25492188 8.64453125 25.87109375 C4.95116661 22.86378718 4.95116661 22.86378718 0.4375 21.9375 C-2.6493684 23.28305802 -5.27318404 25.03415593 -8 27 C-7.34 23.37 -6.68 19.74 -6 16 C-6.99 15.195625 -7.98 14.39125 -9 13.5625 C-9.99 12.716875 -10.98 11.87125 -12 11 C-12 10.67 -12 10.34 -12 10 C-8.7 10 -5.4 10 -2 10 C-1.855625 8.906875 -1.71125 7.81375 -1.5625 6.6875 C-1 3 -1 3 0 0 Z " fill="#F1F3F6" transform="translate(95,176)"/>
<path d="M0 0 C0.66 0 1.32 0 2 0 C3.31626692 3.61973402 4 6.09567131 4 10 C7.3 10 10.6 10 14 10 C13.195625 10.763125 12.39125 11.52625 11.5625 12.3125 C8.83200976 14.79430898 8.83200976 14.79430898 8 18 C8.31052686 20.30336625 8.31052686 20.30336625 8.9375 22.6875 C9.13214844 23.49574219 9.32679687 24.30398437 9.52734375 25.13671875 C9.68332031 25.75160156 9.83929688 26.36648437 10 27 C9.55269531 26.62746094 9.10539062 26.25492188 8.64453125 25.87109375 C4.95116661 22.86378718 4.95116661 22.86378718 0.4375 21.9375 C-2.6493684 23.28305802 -5.27318404 25.03415593 -8 27 C-7.34 23.37 -6.68 19.74 -6 16 C-6.99 15.195625 -7.98 14.39125 -9 13.5625 C-9.99 12.716875 -10.98 11.87125 -12 11 C-12 10.67 -12 10.34 -12 10 C-8.7 10 -5.4 10 -2 10 C-1.855625 8.906875 -1.71125 7.81375 -1.5625 6.6875 C-1 3 -1 3 0 0 Z " fill="#F1F3F6" transform="translate(31,176)"/>
</svg>
